# xmcd
#
# Track frame offsets: 
#        182
#        6025
#        28412
#        47780
#        71422
#        90005
#        107230
#        120442
#        142132
#        159142
#        175982
#        199382
#        229625
#        249122
#        256665
#        275255
#        289737
#        309725
#        322987
#        338810
#
# Disc length: 4793 seconds
#
# Revision: 3
# Processed by: cddbd v1.5PL3 Copyright (c) Steve Scherf et al.
# Submitted via: ExactAudioCopy v0.95a3
#
DISCID=0d12b714
DTITLE=Snoop Dogg Presents Tha Eastsidaz - Duces 'N Trayz The Old Fash
DTITLE=ioned Way
DYEAR=2001
DGENRE=Hip-Hop
TTITLE0=Intro (feat. Snoop Dogg)
TTITLE1=I Luv It (background vocals Kokane, Sir Dogg and Snoopy Collins)
TTITLE2=Eastside Ridaz (feat. Nate Dogg, Soopafly and LaToiya Williams)
TTITLE3=Crip Help (feat. LaToiya Williams)
TTITLE4=I Don't Know (feat. Soopafly, Suga Free and Latoiya Williams)
TTITLE5=Welcome 2 tha House (feat. Nate Dogg and Tha Angels)
TTITLE6=Friends (feat. Kokane)
TTITLE7=Gang Bang 4 Real (feat. Bad Azz)
TTITLE8=I Pledge Alligence (feat. Supafly and Kokane)
TTITLE9=Now is the Time (feat. Kokane)
TTITLE10=Cool (feat. Nate Dogg and Butch Casidy, background vocals Kokan
TTITLE10=e)
TTITLE11=Dogghouse in Your Mouth (feat. Kurupt, Soopafly, RBX, Suga Fr
TTITLE11=ee, Ruff Dogg, King Lou and Mixmaster Spade, background vocals 
TTITLE11=Kokane)
TTITLE12=Connected (Mobb Deep and Kokane)
TTITLE13=Mac Bible Chapter 211 Verse 20-21 (feat. Mac Minista)
TTITLE14=Break a B***h Til I Die
TTITLE15=Sticky Fingers (feat. Kokane and Ric Rock)
TTITLE16=There Comes a Time (feat. Daddy V)
TTITLE17=Late Night (feat. Kokane)
TTITLE18=So Low (feat. Lil' Mo, background vocals Kokane)
TTITLE19=Everywhere I Go (feat. Kokane)
EXTD=
EXTT0=
EXTT1=
EXTT2=
EXTT3=
EXTT4=
EXTT5=
EXTT6=
EXTT7=
EXTT8=
EXTT9=
EXTT10=
EXTT11=
EXTT12=
EXTT13=
EXTT14=
EXTT15=
EXTT16=
EXTT17=
EXTT18=
EXTT19=
PLAYORDER=
